<?xml version="1.0" encoding="UTF-8" standalone="no"?>
<!-- Created with Inkscape (http://www.inkscape.org/) -->

<svg
   xmlns:dc="http://purl.org/dc/elements/1.1/"
   xmlns:cc="http://creativecommons.org/ns#"
   xmlns:rdf="http://www.w3.org/1999/02/22-rdf-syntax-ns#"
   xmlns:svg="http://www.w3.org/2000/svg"
   xmlns="http://www.w3.org/2000/svg"
   xmlns:sodipodi="http://sodipodi.sourceforge.net/DTD/sodipodi-0.dtd"
   xmlns:inkscape="http://www.inkscape.org/namespaces/inkscape"
   width="744.09448819"
   height="1052.3622047"
   id="svg2"
   version="1.1"
   inkscape:version="0.48+devel r10540"
   sodipodi:docname="New document 1">
  <defs
     id="defs4" />
  <sodipodi:namedview
     id="base"
     pagecolor="#ffffff"
     bordercolor="#666666"
     borderopacity="1.0"
     inkscape:pageopacity="0.0"
     inkscape:pageshadow="2"
     inkscape:zoom="1.979899"
     inkscape:cx="259.9968"
     inkscape:cy="528.84802"
     inkscape:document-units="px"
     inkscape:current-layer="layer1"
     showgrid="false"
     inkscape:object-nodes="false"
     inkscape:window-width="809"
     inkscape:window-height="706"
     inkscape:window-x="731"
     inkscape:window-y="28"
     inkscape:window-maximized="0" />
  <metadata
     id="metadata7">
    <rdf:RDF>
      <cc:Work
         rdf:about="">
        <dc:format>image/svg+xml</dc:format>
        <dc:type
           rdf:resource="http://purl.org/dc/dcmitype/StillImage" />
        <dc:title></dc:title>
      </cc:Work>
    </rdf:RDF>
  </metadata>
  <g
     inkscape:label="Layer 1"
     inkscape:groupmode="layer"
     id="layer1">
    <path
       style="fill:#000000;fill-opacity:1;stroke:#000000;stroke-width:2;stroke-linecap:butt;stroke-linejoin:miter;stroke-miterlimit:4;stroke-opacity:1;stroke-dasharray:none"
       d="m 207.08128,543.79098 c 12.83673,-19.13113 27.27411,-22.72842 27.27411,-22.72842 0,0 33.84012,-46.46703 64.14469,-52.52795 0,0 -34.85027,15.1523 -39.39596,48.99241 0,0 32.32489,-25.25382 55.05332,-15.15229 0,0 -35.35533,6.56598 -40.91117,17.67766 0,0 27.77919,-6.56598 51.0127,-0.50506 0,0 -46.48805,7.08683 -52.52793,9.09136 0,0 -29.29443,7.57616 87.88326,-2.02029 0,0 -78.79189,9.09137 -87.88326,13.63705 0,0 26.26397,-3.03046 65.65992,18.68782 -64.70811,-13.23645 -70.66609,-9.89111 -100.51018,-6.06091 -27.18825,3.48935 -41.4865,8.32625 -29.7995,-9.09138 z"
       id="path3107"
       inkscape:connector-curvature="0"
       sodipodi:nodetypes="sccccccccccss" />
    <text
       xml:space="preserve"
       style="font-size:40px;font-style:normal;font-weight:normal;line-height:125%;letter-spacing:0px;word-spacing:0px;fill:#000000;fill-opacity:1;stroke:none;font-family:Sans"
       x="169.18025"
       y="591.77325"
       id="text3109"
       sodipodi:linespacing="125%"><tspan
         sodipodi:role="line"
         id="tspan3111"
         x="169.18025"
         y="591.77325"
         style="font-style:normal;font-variant:normal;font-weight:500;font-stretch:normal;font-family:Oceania;-inkscape-font-specification:Oceania Medium">OpenPablo</tspan></text>
    <path
       style="fill:#ffffff;fill-opacity:1;stroke:#ffffff;stroke-width:0.77374572px;stroke-linecap:butt;stroke-linejoin:miter;stroke-opacity:1"
       d="m 215.30191,543.51543 c 18.02389,-18.0824 27.50037,-13.15084 27.50037,-13.15084 0,0 -12.44949,17.46596 -27.50037,13.15084 z"
       id="path3881"
       inkscape:connector-curvature="0"
       sodipodi:nodetypes="ccc" />
  </g>
</svg>
