<?xml version="1.0" encoding="UTF-8" standalone="no"?>
<!-- Created with Inkscape (http://www.inkscape.org/) -->

<svg
   xmlns:osb="http://www.openswatchbook.org/uri/2009/osb"
   xmlns:dc="http://purl.org/dc/elements/1.1/"
   xmlns:cc="http://creativecommons.org/ns#"
   xmlns:rdf="http://www.w3.org/1999/02/22-rdf-syntax-ns#"
   xmlns:svg="http://www.w3.org/2000/svg"
   xmlns="http://www.w3.org/2000/svg"
   xmlns:xlink="http://www.w3.org/1999/xlink"
   xmlns:sodipodi="http://sodipodi.sourceforge.net/DTD/sodipodi-0.dtd"
   xmlns:inkscape="http://www.inkscape.org/namespaces/inkscape"
   width="744.09448819"
   height="1052.3622047"
   id="svg2"
   version="1.1"
   inkscape:version="0.48+devel r10540"
   sodipodi:docname="openpablo2.svg">
  <defs
     id="defs4">
    <linearGradient
       inkscape:collect="always"
       id="linearGradient2288">
      <stop
         style="stop-color:#000000;stop-opacity:1;"
         offset="0"
         id="stop2290" />
      <stop
         style="stop-color:#000000;stop-opacity:0;"
         offset="1"
         id="stop2292" />
    </linearGradient>
    <linearGradient
       id="linearGradient2278"
       osb:paint="solid">
      <stop
         style="stop-color:#ffffff;stop-opacity:1;"
         offset="0"
         id="stop2280" />
    </linearGradient>
    <linearGradient
       inkscape:collect="always"
       xlink:href="#linearGradient2288"
       id="linearGradient2294"
       x1="201.97583"
       y1="512.39799"
       x2="345.46203"
       y2="512.39799"
       gradientUnits="userSpaceOnUse" />
  </defs>
  <sodipodi:namedview
     id="base"
     pagecolor="#ffffff"
     bordercolor="#666666"
     borderopacity="1.0"
     inkscape:pageopacity="0.0"
     inkscape:pageshadow="2"
     inkscape:zoom="3.959798"
     inkscape:cx="259.46331"
     inkscape:cy="528.84802"
     inkscape:document-units="px"
     inkscape:current-layer="layer1"
     showgrid="false"
     inkscape:object-nodes="false"
     inkscape:window-width="1501"
     inkscape:window-height="846"
     inkscape:window-x="96"
     inkscape:window-y="69"
     inkscape:window-maximized="0" />
  <metadata
     id="metadata7">
    <rdf:RDF>
      <cc:Work
         rdf:about="">
        <dc:format>image/svg+xml</dc:format>
        <dc:type
           rdf:resource="http://purl.org/dc/dcmitype/StillImage" />
        <dc:title></dc:title>
      </cc:Work>
    </rdf:RDF>
  </metadata>
  <g
     inkscape:label="Layer 1"
     inkscape:groupmode="layer"
     id="layer1">
    <path
       style="fill:#000000;fill-opacity:1;stroke:url(#linearGradient2294);stroke-width:2;stroke-linecap:butt;stroke-linejoin:miter;stroke-miterlimit:4;stroke-opacity:1;stroke-dasharray:none"
       d="m 212.13204,540.00291 c 13.86115,-19.93043 22.22335,-18.94035 22.22335,-18.94035 0,0 25.50636,-46.97211 50.50763,-49.75003 0,0 -32.32489,9.59646 -36.87058,43.43657 0,0 34.59774,-33.58758 57.32617,-23.48605 -22.4759,-0.50507 -40.4061,14.64721 -45.96194,25.75889 0,0 14.89975,-12.37437 38.13326,-6.31345 0,0 -31.5883,5.5716 -32.32488,16.92005 26.80756,-0.60886 41.30368,-7.88955 67.17514,-16.41496 0,0 -19.29671,10.89776 -27.56482,14.32969 -14.73174,6.11484 -25.4934,6.5173 -35.56971,8.9038 0,0 -2.57523,3.86837 19.17162,5.84006 11.59786,1.05153 46.38368,-0.42608 50.52891,11.07999 -17.02672,-11.85683 -54.05924,-6.5758 -73.21379,-9.79342 -11.90826,-2.00037 -16.56152,1.56031 -25.78116,3.98506 -11.63912,3.06106 -36.1853,6.53097 -27.7792,-5.55585 z"
       id="path3107"
       inkscape:connector-curvature="0"
       sodipodi:nodetypes="sccccccccscscsss" />
    <text
       xml:space="preserve"
       style="font-size:40px;font-style:normal;font-weight:normal;line-height:125%;letter-spacing:0px;word-spacing:0px;fill:#000000;fill-opacity:1;stroke:none;font-family:Sans"
       x="169.18025"
       y="591.77325"
       id="text3109"
       sodipodi:linespacing="125%"><tspan
         sodipodi:role="line"
         id="tspan3111"
         x="169.18025"
         y="591.77325"
         style="font-style:normal;font-variant:normal;font-weight:500;font-stretch:normal;font-family:Oceania;-inkscape-font-specification:Oceania Medium">OpenPablo</tspan></text>
    <path
       style="fill:#ffffff;fill-opacity:1;stroke:#ffffff;stroke-width:0.77374572px;stroke-linecap:butt;stroke-linejoin:miter;stroke-opacity:1"
       d="m 220.89836,539.22228 c 18.02389,-18.0824 17.90392,-8.85769 17.90392,-8.85769 0,0 -2.85304,13.17281 -17.90392,8.85769 z"
       id="path3881"
       inkscape:connector-curvature="0"
       sodipodi:nodetypes="ccc" />
  </g>
</svg>
