<?xml version="1.0" encoding="UTF-8" standalone="no"?>
<!-- Created with Inkscape (http://www.inkscape.org/) -->

<svg
   xmlns:dc="http://purl.org/dc/elements/1.1/"
   xmlns:cc="http://creativecommons.org/ns#"
   xmlns:rdf="http://www.w3.org/1999/02/22-rdf-syntax-ns#"
   xmlns:svg="http://www.w3.org/2000/svg"
   xmlns="http://www.w3.org/2000/svg"
   xmlns:sodipodi="http://sodipodi.sourceforge.net/DTD/sodipodi-0.dtd"
   xmlns:inkscape="http://www.inkscape.org/namespaces/inkscape"
   width="1488.189"
   height="2104.7244"
   id="svg2"
   version="1.1"
   inkscape:version="0.48+devel r10540"
   sodipodi:docname="openpablo6.svg"
   inkscape:export-filename="/home/drunkeneye/Dropbox/openpablo/doc/logo/openpablo6.png"
   inkscape:export-xdpi="90"
   inkscape:export-ydpi="90">
  <defs
     id="defs4" />
  <sodipodi:namedview
     id="base"
     pagecolor="#ffffff"
     bordercolor="#666666"
     borderopacity="1.0"
     inkscape:pageopacity="0.0"
     inkscape:pageshadow="2"
     inkscape:zoom="0.24748737"
     inkscape:cx="1213.2457"
     inkscape:cy="610.98817"
     inkscape:document-units="px"
     inkscape:current-layer="layer1"
     showgrid="false"
     inkscape:window-width="1920"
     inkscape:window-height="980"
     inkscape:window-x="-9"
     inkscape:window-y="22"
     inkscape:window-maximized="1" />
  <metadata
     id="metadata7">
    <rdf:RDF>
      <cc:Work
         rdf:about="">
        <dc:format>image/svg+xml</dc:format>
        <dc:type
           rdf:resource="http://purl.org/dc/dcmitype/StillImage" />
        <dc:title></dc:title>
      </cc:Work>
    </rdf:RDF>
  </metadata>
  <g
     inkscape:label="Layer 1"
     inkscape:groupmode="layer"
     id="layer1"
     style="display:inline"
     transform="translate(0,1052.3622)">
    <path
       style="fill:#ff0000;fill-opacity:1;stroke:#ff0000;stroke-width:1.37391829;stroke-linecap:round;stroke-linejoin:miter;stroke-miterlimit:6;stroke-opacity:1;stroke-dasharray:none"
       d="m 395.63845,-821.1 c -19.40203,-0.0253 -37.03155,23.27623 -32.7839,40.26685 2.47986,9.91939 -3.70839,23.34303 0.98137,32.72256 5.07173,10.14345 28.55205,11.83788 37.66008,14.8739 7.65996,2.5533 11.32162,9.86619 15.8246,16.52995 0.008,0.0117 0.0228,0.0189 0.0306,0.0306 6.87242,19.28791 18.5664,38.94813 24.81027,38.94813 1.90082,0 15.86709,2.04775 16.83663,3.98682 7.12688,14.25375 -3.32693,52.22836 6.31757,71.51736 3.7776,7.55519 15.82827,36.85538 11.5311,45.44971 -8.23992,16.47983 0.22452,36.17706 10.54973,56.82747 11.18262,22.36524 15.1694,8.5814 29.10376,15.54858 16.53356,13.02975 5.05797,64.4233 21.80482,85.25655 14.29207,37.43275 -9.37649,33.00097 -19.81141,38.64145 -19.97866,-0.71483 -34.18353,16.7481 -49.62053,49.34452 -2.39876,7.19628 -5.32488,33.66728 -14.75122,57.80884 -8.26602,21.16986 -18.1217,37.15219 -4.2015,49.58987 12.93038,-11.41078 3.66268,-15.3515 15.8246,-23.43021 16.65557,-11.06369 13.75357,-73.93974 51.18459,-75.81086 23.70322,-1.18488 53.43741,-36.21535 88.78334,-24.7796 19.65169,-9.82584 28.17505,-37.8004 38.67213,-53.54601 13.16814,-19.75223 44.86211,-51.59187 66.27316,-58.72888 22.27936,-7.42646 57.53675,-13.24085 77.46691,-26.52766 6.89825,-4.59881 13.43275,-8.73442 19.84208,-13.86186 0.62454,-0.49964 4.88938,-6.02831 5.94956,-4.96818 8.28227,8.28223 -19.04403,25.42491 -12.91115,37.69075 7.45615,14.91232 51.37831,32.7839 69.03326,32.7839 5.13394,0 34.29541,-16.13565 39.04014,-12.97249 5.73473,3.82313 13.91872,5.64136 20.82345,7.94296 15.78672,5.26224 44.93482,68.09562 53.51531,85.25655 1.3017,2.6034 7.2085,23.67405 14.0459,16.83663 5.3627,-5.36272 -3.1281,-14.64303 -3.1281,-21.80482 0,-7.53629 -3.6028,-14.76463 -5.9496,-21.80482 -8.78229,-26.34708 7.9237,-77.32319 -31.74119,-97.15566 -3.6532,-1.82659 -36.6787,-12.56846 -36.6787,-12.88048 0,-2.9252 16.80445,-11.36169 19.84208,-12.88049 16.73532,-8.36766 31.31282,-9.53817 47.93381,-17.84867 9.2716,-4.63579 25.7552,-19.56493 29.4411,-29.53311 6.898,-18.65549 8.8492,-26.40079 11.8992,-25.6383 14.8062,3.70157 33.1272,65.61209 42.2601,80.90171 11.1999,18.38507 31.7211,29.459 31.0358,9.93638 -10.7502,-47.65289 12.4707,-96.43534 7.9431,-124.87937 -0.4716,-6.86645 10.2404,6.50035 40.9722,-7.88163 16.3807,-8.96953 34.0225,-15.49064 65.1078,-48.63916 -1.7844,-3.56891 -71.4202,46.90689 -93.6902,23.1542 -7.8335,-8.35493 49.6512,-35.10212 49.6512,-39.71483 0,-5.57182 -50.568,20.67923 -53.1167,21.52881 -24.0849,8.02829 -43.5806,-15.70697 -62.4704,-22.81685 -16.2802,-6.12771 -12.6871,12.49738 -31.1277,5.02952 -17.7988,-7.20793 -41.9455,-81.19251 -66.67189,-59.52624 -102.45469,-21.91751 -215.63562,31.54127 -313.60916,79.27632 -51.8311,23.95693 -32.56099,10.68719 -57.4715,26.773 -37.79584,24.40644 -37.6709,39.29563 -69.40128,40.63487 -41.65854,-1.38739 -41.29504,-14.77734 -50.38723,-31.09717 -4.90941,-19.63765 3.92246,-49.61149 9.38435,-65.99716 3.62213,-10.86638 5.30554,-24.09789 5.30554,-35.72801 0,-11.35087 0.23759,-15.6332 -3.74148,-27.57037 -0.89325,-2.67975 -2.1976,-5.05486 -3.83347,-7.17627 l 1.62539,-0.9507 c 4.53869,-34.8026 -43.10802,-62.6949 -70.38265,-76.33221 -3.58675,-1.79337 -7.23277,-2.60207 -10.82574,-2.60676 z"
       id="path960"
       inkscape:connector-curvature="0" />
    <flowRoot
       xml:space="preserve"
       id="flowRoot28"
       style="font-size:333px;font-style:normal;font-variant:normal;font-weight:bold;font-stretch:normal;line-height:125%;letter-spacing:0px;word-spacing:0px;fill:#000000;fill-opacity:1;stroke:none;font-family:Pablo LET;-inkscape-font-specification:Pablo LET Bold"
       transform="translate(-20,0)"><flowRegion
         id="flowRegion30"><rect
           id="rect32"
           width="2187.9905"
           height="1014.1932"
           x="-70.710678"
           y="521.02191"
           style="font-size:333px;font-style:normal;font-variant:normal;font-weight:bold;font-stretch:normal;font-family:Pablo LET;-inkscape-font-specification:Pablo LET Bold" /></flowRegion><flowPara
         id="flowPara34"></flowPara></flowRoot>    <flowRoot
       xml:space="preserve"
       id="flowRoot36"
       style="font-size:333px;font-style:normal;font-weight:normal;line-height:125%;letter-spacing:0px;word-spacing:0px;fill:#000000;fill-opacity:1;stroke:none;font-family:pablo;-inkscape-font-specification:pablo"
       transform="translate(335.5737,-921.25913)"><flowRegion
         id="flowRegion38"><rect
           id="rect40"
           width="2359.7163"
           height="1165.7161"
           x="-165.66502"
           y="559.40771"
           style="font-size:333px;font-family:pablo;-inkscape-font-specification:pablo" /></flowRegion><flowPara
         id="flowPara42"
         style="font-size:444px;font-style:normal;font-variant:normal;font-weight:bold;font-stretch:normal;font-family:Pablo LET;-inkscape-font-specification:Pablo LET Bold">openPablo</flowPara></flowRoot>  </g>
</svg>
